<?xml version="1.0" encoding="UTF-8"?>
<svg version="1.1" xmlns="http://www.w3.org/2000/svg" width="1563" height="1563">
<path d="M0 0 C515.79 0 1031.58 0 1563 0 C1563 515.79 1563 1031.58 1563 1563 C1047.21 1563 531.42 1563 0 1563 C0 1047.21 0 531.42 0 0 Z " fill="#E71D86" transform="translate(0,0)"/>
<path d="M0 0 C1.71993164 -0.00580078 1.71993164 -0.00580078 3.47460938 -0.01171875 C14.60151842 0.00087537 25.0860399 0.45799922 35.75 3.8125 C36.61270508 4.0801416 37.47541016 4.3477832 38.36425781 4.62353516 C50.91700194 8.65885233 61.3875249 14.29100265 67.625 26.375 C70.32736764 32.12783688 71.81655151 37.77347429 70.6875 44.125 C68.8410152 48.03581331 66.42625006 51.47242301 63.9375 55 C62.54312126 57.05521011 61.14990581 59.11120992 59.7578125 61.16796875 C59.06333008 62.18036621 58.36884766 63.19276367 57.65332031 64.23583984 C54.95122259 68.20710468 52.36605578 72.24463147 49.8125 76.3125 C49.34078369 77.06184814 48.86906738 77.81119629 48.38305664 78.58325195 C22.40397802 120.02555792 -1.65817958 162.66267489 -24.16796875 206.08203125 C-25.94975661 209.5186165 -27.7451399 212.94751902 -29.5559082 216.36889648 C-35.55016474 227.69931292 -41.39751468 239.09498956 -47.125 250.5625 C-47.55759125 251.42762207 -47.9901825 252.29274414 -48.43588257 253.18408203 C-55.45721103 267.24058932 -62.19838519 281.39388794 -68.72753906 295.68603516 C-70.39605035 299.30628315 -72.09486677 302.91086596 -73.8046875 306.51171875 C-83.70690396 327.38659419 -93.06207194 348.48235015 -102.25195312 369.6796875 C-103.26025768 372.00454442 -104.27046689 374.32856358 -105.28125 376.65234375 C-143.3471302 464.23009682 -176.55794003 553.87758636 -222.0625 688.625 C-222.46684265 689.85658844 -222.8711853 691.08817688 -223.28778076 692.35708618 C-230.3552376 713.91407988 -237.276872 735.5270464 -243.61213684 757.31219482 C-245.68196683 764.42926138 -247.86774985 771.5100665 -250.04827881 778.59384155 C-254.07240275 791.675482 -257.99437076 804.77576194 -261.69482422 817.953125 C-262.48655406 820.73700984 -263.3137062 823.50960978 -264.14306641 826.2824707 C-266.84687114 835.32596883 -269.29428025 844.43177735 -271.72631836 853.55175781 C-273.34007329 859.58240514 -275.00569559 865.58701598 -276.8125 871.5625 C-280.05557798 882.32393067 -282.74639474 893.23719476 -285.53857422 904.12207031 C-286.7836531 908.95313348 -288.07429306 913.77136742 -289.3671875 918.58984375 C-290.6517688 923.39375318 -291.91209914 928.20393805 -293.171875 933.0144043 C-294.52979743 938.18688216 -295.91083117 943.35270758 -297.3046875 948.515625 C-297.83888515 950.49993032 -298.37279331 952.48431332 -298.90661621 954.46871948 C-299.42120004 956.37705166 -299.93954282 958.28436901 -300.45800781 960.19165039 C-302.11340247 966.34780279 -303.691066 972.51688488 -305.1171875 978.73046875 C-305.37226074 979.8393042 -305.62733398 980.94813965 -305.89013672 982.09057617 C-306.31805524 985.16491101 -306.12395599 987.15568833 -305.3125 990.125 C-304.99152344 991.31351563 -304.67054688 992.50203125 -304.33984375 993.7265625 C-304.16203369 994.37608887 -303.98422363 995.02561523 -303.80102539 995.69482422 C-300.61564803 1007.57542088 -299.59881133 1018.29754666 -305.6015625 1029.5390625 C-311.8263847 1039.49212046 -320.03617662 1044.83543801 -331.47268677 1047.65817261 C-337.51588557 1048.95036037 -343.23782596 1049.45359059 -349.41015625 1049.3984375 C-350.35319107 1049.39363373 -351.29622589 1049.38882996 -352.26783752 1049.38388062 C-363.49576425 1049.22852587 -374.60117693 1048.00131803 -385.75 1046.75 C-389.8732698 1046.30069637 -393.99718901 1045.85749487 -398.12109375 1045.4140625 C-399.1316684 1045.30423035 -400.14224304 1045.19439819 -401.18344116 1045.08123779 C-410.15119142 1044.1160722 -419.13039271 1043.33209915 -428.11743164 1042.57177734 C-434.85721847 1041.99947717 -441.58422099 1041.31933726 -448.3125 1040.625 C-457.1411364 1039.72732472 -465.96958577 1038.8692681 -474.8125 1038.125 C-483.65544057 1037.38072968 -492.4836949 1036.52113398 -501.3125 1035.625 C-511.03104785 1034.63905152 -520.74958691 1033.70368082 -530.48486328 1032.89892578 C-535.91355786 1032.44361591 -541.32953316 1031.91916396 -546.74609375 1031.3359375 C-577.81853387 1028.0266292 -606.14621772 1028.56227267 -636.3125 1037.125 C-637.03405273 1037.32399902 -637.75560547 1037.52299805 -638.49902344 1037.72802734 C-659.25507166 1043.57015157 -679.69348701 1053.72512795 -697.3125 1066.125 C-697.86518555 1066.5070459 -698.41787109 1066.8890918 -698.98730469 1067.28271484 C-712.72150255 1076.92733527 -724.94176148 1089.4875264 -735.84765625 1102.17578125 C-740.67114462 1107.78233557 -746.01772044 1112.87437177 -751.28515625 1118.05859375 C-754.90548987 1121.64406059 -758.46357054 1125.22441892 -761.78125 1129.09375 C-766.81859239 1134.9618736 -772.42422504 1140.27983362 -777.9296875 1145.703125 C-781.66749957 1149.40685368 -785.3572487 1153.09571306 -788.78125 1157.09375 C-794.01134851 1163.19349018 -799.85665017 1168.71095852 -805.57421875 1174.34765625 C-810.06340507 1178.79797515 -814.38712624 1183.28777196 -818.49804688 1188.08789062 C-823.05047641 1193.19896059 -828.05574674 1197.90192963 -832.9296875 1202.703125 C-836.58642964 1206.32652298 -840.21160576 1209.9265189 -843.5546875 1213.84375 C-848.59792772 1219.71524884 -854.07187241 1225.18310469 -859.51660156 1230.67919922 C-860.79190991 1231.97104055 -862.06183481 1233.26821981 -863.32617188 1234.57080078 C-873.57235313 1245.12351452 -883.70870837 1254.30019743 -898.3125 1258.125 C-899.3025 1258.455 -900.2925 1258.785 -901.3125 1259.125 C-910.47045732 1260.06864087 -918.64473895 1258.64883087 -926.0859375 1253.03125 C-942.95182849 1238.19322274 -947.59894374 1217.55161367 -952.125 1196.4375 C-952.46469511 1194.88031339 -952.80504307 1193.32326908 -953.14599609 1191.76635742 C-954.21171829 1186.88809221 -955.26362163 1182.00691092 -956.3125 1177.125 C-956.48541565 1176.320625 -956.6583313 1175.51625 -956.83648682 1174.6875 C-957.18351477 1173.07304619 -957.53048457 1171.45857988 -957.87739563 1169.84410095 C-958.56135737 1166.66113905 -959.24562315 1163.47824273 -959.93032837 1160.29544067 C-960.26862323 1158.72264133 -960.606656 1157.1497856 -960.94442749 1155.57687378 C-963.21442021 1145.01626951 -965.60832905 1134.49679241 -968.16894531 1124.00219727 C-971.8017561 1109.0862891 -975.03906245 1094.0801701 -978.2578125 1079.0703125 C-978.9423199 1075.88012482 -979.62718903 1072.69001516 -980.3125 1069.5 C-980.48342163 1068.70422546 -980.65434326 1067.90845093 -980.83044434 1067.08856201 C-983.13608742 1056.37132888 -985.54202496 1045.68858018 -988.16625977 1035.04394531 C-989.45370309 1029.7999369 -990.66239273 1024.55093739 -991.76953125 1019.265625 C-1001.34559792 973.61420374 -1026.02496539 930.94574103 -1063.3125 902.125 C-1064.09753906 901.46242188 -1064.88257813 900.79984375 -1065.69140625 900.1171875 C-1079.64945394 888.38966802 -1096.40221666 880.94594996 -1112.6875 873.0625 C-1114.98319474 871.94500176 -1117.27860211 870.82691299 -1119.57373047 869.70825195 C-1125.16305064 866.9859628 -1130.75601949 864.27128761 -1136.35083008 861.56030273 C-1139.71784534 859.92855904 -1143.08360007 858.29423212 -1146.44915771 856.65948486 C-1151.71011688 854.10424056 -1156.97293366 851.55287023 -1162.237854 849.00579834 C-1172.31516747 844.13008599 -1182.37701718 839.22282877 -1192.4375 834.3125 C-1193.30076904 833.89117798 -1194.16403809 833.46985596 -1195.0534668 833.0357666 C-1198.54554851 831.33143392 -1202.03762498 829.62709048 -1205.52966309 827.92266846 C-1213.0507178 824.25202439 -1220.57359676 820.58513492 -1228.09765625 816.9206543 C-1231.30949107 815.35624275 -1234.5203559 813.78986557 -1237.73046875 812.22192383 C-1245.23496057 808.55843282 -1252.74588653 804.91030462 -1260.28164673 801.31147766 C-1263.81946065 799.6207995 -1267.35331068 797.92192542 -1270.88690186 796.22244263 C-1272.55523897 795.42284728 -1274.2254612 794.62717036 -1275.89776611 793.83590698 C-1293.39736899 785.55359589 -1309.44516737 776.83101835 -1317.3125 758.125 C-1319.69768495 750.96944515 -1319.36606578 741.48536448 -1316.5234375 734.45703125 C-1312.22012527 726.16968479 -1307.3058588 719.43169968 -1299.91796875 713.7734375 C-1299.3097226 713.30260742 -1298.70147644 712.83177734 -1298.07479858 712.34667969 C-1291.52242479 707.37453184 -1284.55445521 703.22568828 -1277.4375 699.125 C-1276.04524482 698.31182769 -1274.65365877 697.49750881 -1273.26269531 696.68212891 C-1270.38442675 694.99616278 -1267.50341196 693.31505039 -1264.62011719 691.63769531 C-1258.4131587 688.02265356 -1252.23659677 684.3564928 -1246.0614624 680.68743896 C-1244.06522886 679.50162102 -1242.06805828 678.31739309 -1240.07080078 677.13330078 C-1230.51249472 671.4612566 -1221.01139931 665.6987514 -1211.52429199 659.90863037 C-1204.59062041 655.67988436 -1197.63027673 651.54923568 -1190.5144043 647.63623047 C-1183.93964544 643.98596128 -1177.54123064 640.04441838 -1171.125 636.125 C-1161.34698986 630.15251337 -1151.52031888 624.27606659 -1141.625 618.5 C-1106.58921924 599.49514078 -1106.58921924 599.49514078 -1076.3125 574.125 C-1071.3125 569.125 -1071.3125 569.125 -1069.69140625 567.64453125 C-1057.79351478 556.43924053 -1048.39670449 542.24891881 -1040.3125 528.125 C-1039.82894043 527.28227539 -1039.34538086 526.43955078 -1038.84716797 525.57128906 C-1025.83206136 502.56457887 -1018.7056443 478.82971797 -1014.875 452.75 C-1014.65975265 451.31037145 -1014.44441888 449.87075582 -1014.22900391 448.43115234 C-1012.56804269 437.24217856 -1011.10371202 426.0318781 -1009.69165039 414.80908203 C-1008.74635024 407.33405748 -1007.68703916 399.897869 -1006.4543457 392.46557617 C-1005.24464418 385.02182007 -1004.31762654 377.54392095 -1003.375 370.0625 C-1002.02399096 359.34225614 -1000.50860394 348.66198074 -998.81494141 337.98974609 C-997.36468251 328.73564548 -996.16534572 319.45601574 -994.99511719 310.1635437 C-993.95729871 301.93424924 -992.83773064 293.73948862 -991.45239258 285.56176758 C-990.62354664 280.51856305 -989.98772712 275.46463687 -989.4140625 270.38671875 C-989.25073549 268.97256511 -989.08732308 267.55842134 -988.92382812 266.14428711 C-988.60526748 263.38234281 -988.30756319 260.61923077 -988.02148438 257.85375977 C-986.09435247 241.05913891 -981.0534501 224.88412061 -968.3125 213.125 C-965.43522243 211.12065919 -962.50955728 209.55526247 -959.3125 208.125 C-958.36375 207.691875 -957.415 207.25875 -956.4375 206.8125 C-947.11145981 204.76077116 -939.56955428 206.68745938 -930.79296875 209.93359375 C-924.72922244 212.10198253 -924.72922244 212.10198253 -918.56884766 211.11547852 C-917.63089355 210.58365967 -916.69293945 210.05184082 -915.7265625 209.50390625 C-914.64802002 208.90642578 -913.56947754 208.30894531 -912.45825195 207.69335938 C-911.60102036 207.20452271 -911.60102036 207.20452271 -910.72647095 206.70581055 C-907.6154046 204.9349424 -904.47123234 203.22423574 -901.33203125 201.50390625 C-900.67536972 201.14221344 -900.01870819 200.78052063 -899.34214783 200.40786743 C-834.68453019 164.89544185 -764.61248357 138.75408401 -694.9375 115.0625 C-693.89240265 114.70692017 -692.8473053 114.35134033 -691.77053833 113.98498535 C-678.66795453 109.53457795 -665.53107427 105.21851183 -652.3125 101.125 C-651.33974121 100.82343994 -650.36698242 100.52187988 -649.36474609 100.21118164 C-647.14143284 99.52811008 -644.91578371 98.8541576 -642.6875 98.1875 C-641.88884521 97.94789551 -641.09019043 97.70829102 -640.26733398 97.46142578 C-632.31571626 95.09421394 -624.32594773 92.864069 -616.32763672 90.66040039 C-611.16623556 89.23240992 -606.03659743 87.74094256 -600.92578125 86.140625 C-594.14938435 84.03862884 -587.31332575 82.24487035 -580.4375 80.5 C-579.10768162 80.16057662 -577.77793106 79.82088743 -576.44824219 79.48095703 C-574.32576622 78.93846967 -572.20320837 78.39631868 -570.08032227 77.85543823 C-564.57266339 76.45132651 -559.07089558 75.02529878 -553.5703125 73.59375 C-535.98469097 69.02529509 -518.40142303 64.63455389 -500.62915039 60.84130859 C-496.6468063 59.9812278 -492.67131025 59.09198988 -488.6953125 58.203125 C-479.47840054 56.14710436 -470.24278463 54.18593574 -461 52.25 C-459.76802887 51.99188034 -459.76802887 51.99188034 -458.51116943 51.72854614 C-455.14191383 51.0227749 -451.772646 50.31706467 -448.40313721 49.61250305 C-443.53554577 48.59395618 -438.67105372 47.56229192 -433.80859375 46.51953125 C-413.40469688 42.17280764 -392.87954233 38.60108923 -372.3125 35.125 C-370.94026583 34.89193355 -369.56803269 34.658861 -368.19580078 34.42578125 C-347.46906926 30.92580868 -326.66824909 28.00939016 -305.84399414 25.16101074 C-300.78275582 24.46793815 -295.72425921 23.75954201 -290.66796875 23.03125 C-229.5249888 14.26555783 -167.59545402 7.66649676 -105.8828125 4.82543945 C-95.80548879 4.3611076 -85.75089678 3.77420641 -75.6875 3.0625 C-62.14392681 2.11770437 -48.60839219 1.72804231 -35.03662109 1.46655273 C-28.49287425 1.33456005 -22.02489704 1.19339612 -15.52734375 0.34106445 C-10.37286375 -0.16177007 -5.17361025 -0.01727416 0 0 Z " fill="#FED882" transform="translate(1405.3125,173.875)"/>
<path d="M0 0 C1.71993164 -0.00580078 1.71993164 -0.00580078 3.47460938 -0.01171875 C14.60151842 0.00087537 25.0860399 0.45799922 35.75 3.8125 C36.61270508 4.0801416 37.47541016 4.3477832 38.36425781 4.62353516 C50.91700194 8.65885233 61.3875249 14.29100265 67.625 26.375 C70.32736764 32.12783688 71.81655151 37.77347429 70.6875 44.125 C68.8410152 48.03581331 66.42625006 51.47242301 63.9375 55 C62.54312126 57.05521011 61.14990581 59.11120992 59.7578125 61.16796875 C58.71608887 62.68656494 58.71608887 62.68656494 57.65332031 64.23583984 C54.95122259 68.20710468 52.36605578 72.24463147 49.8125 76.3125 C49.34078369 77.06184814 48.86906738 77.81119629 48.38305664 78.58325195 C22.40397802 120.02555792 -1.65817958 162.66267489 -24.16796875 206.08203125 C-25.94975661 209.5186165 -27.7451399 212.94751902 -29.5559082 216.36889648 C-35.55016474 227.69931292 -41.39751468 239.09498956 -47.125 250.5625 C-47.55759125 251.42762207 -47.9901825 252.29274414 -48.43588257 253.18408203 C-55.45721103 267.24058932 -62.19838519 281.39388794 -68.72753906 295.68603516 C-70.39605035 299.30628315 -72.09486677 302.91086596 -73.8046875 306.51171875 C-83.70690396 327.38659419 -93.06207194 348.48235015 -102.25195312 369.6796875 C-103.26025768 372.00454442 -104.27046689 374.32856358 -105.28125 376.65234375 C-143.3471302 464.23009682 -176.55794003 553.87758636 -222.0625 688.625 C-222.46684265 689.85658844 -222.8711853 691.08817688 -223.28778076 692.35708618 C-230.3552376 713.91407988 -237.276872 735.5270464 -243.61213684 757.31219482 C-245.68196683 764.42926138 -247.86774985 771.5100665 -250.04827881 778.59384155 C-254.07240275 791.675482 -257.99437076 804.77576194 -261.69482422 817.953125 C-262.48655406 820.73700984 -263.3137062 823.50960978 -264.14306641 826.2824707 C-266.84687114 835.32596883 -269.29428025 844.43177735 -271.72631836 853.55175781 C-273.34007329 859.58240514 -275.00569559 865.58701598 -276.8125 871.5625 C-280.05557798 882.32393067 -282.74639474 893.23719476 -285.53857422 904.12207031 C-286.7836531 908.95313348 -288.07429306 913.77136742 -289.3671875 918.58984375 C-290.6517688 923.39375318 -291.91209914 928.20393805 -293.171875 933.0144043 C-294.52979743 938.18688216 -295.91083117 943.35270758 -297.3046875 948.515625 C-297.83888515 950.49993032 -298.37279331 952.48431332 -298.90661621 954.46871948 C-299.42120004 956.37705166 -299.93954282 958.28436901 -300.45800781 960.19165039 C-302.44754191 967.59041482 -304.16239163 974.95623485 -305.59716797 982.48120117 C-305.95125732 983.78988159 -305.95125732 983.78988159 -306.3125 985.125 C-306.9725 985.455 -307.6325 985.785 -308.3125 986.125 C-308.76463867 985.24054199 -309.21677734 984.35608398 -309.68261719 983.44482422 C-317.32283161 968.50953016 -324.96020043 953.58305991 -333.06347656 938.89208984 C-336.57400648 932.51707338 -339.96473465 926.08685246 -343.3125 919.625 C-347.22493102 912.07500708 -351.21818598 904.57793099 -355.3125 897.125 C-359.93111695 888.71767383 -364.40143752 880.24274026 -368.81469727 871.72607422 C-372.21190696 865.18792296 -375.70032443 858.70649652 -379.25 852.25 C-384.12021461 843.38926923 -388.80976132 834.44465766 -393.44580078 825.45947266 C-397.06996606 818.455651 -400.81308131 811.52808882 -404.625 804.625 C-415.89779169 784.06250848 -424.78120295 763.46662303 -428.3125 740.125 C-428.60060547 738.41570312 -428.60060547 738.41570312 -428.89453125 736.671875 C-435.89192644 694.18409414 -429.05308069 654.64810515 -411.53881836 615.80859375 C-406.68406116 605.03291939 -402.01676178 594.18142343 -397.375 583.3125 C-395.81669729 579.66654223 -394.25799046 576.02075728 -392.69921875 572.375 C-392.32075806 571.48962555 -391.94229736 570.6042511 -391.55236816 569.69204712 C-388.28659763 562.0557085 -384.99433684 554.43113148 -381.6875 546.8125 C-381.1704248 545.62084229 -380.65334961 544.42918457 -380.12060547 543.20141602 C-379.06412073 540.76718494 -378.00747872 538.33302212 -376.95068359 535.89892578 C-367.05523244 513.10491154 -357.22301905 490.28397635 -347.43204117 467.44490814 C-346.63236658 465.57968242 -345.83248588 463.7145452 -345.03256226 461.84942627 C-343.51708811 458.31528752 -342.00252601 454.7807594 -340.48828125 451.24609375 C-340.03989899 450.20052811 -339.59151672 449.15496246 -339.12954712 448.07771301 C-337.85271564 445.09535775 -336.58076728 442.1110069 -335.3125 439.125 C-334.85288376 438.04329025 -334.39326752 436.96158051 -333.91972351 435.84709167 C-333.47119522 434.78267349 -333.02266693 433.71825531 -332.56054688 432.62158203 C-332.15646606 431.66438263 -331.75238525 430.70718323 -331.33605957 429.72097778 C-326.41339977 417.23600295 -325.1828295 402.6863486 -330.3125 390.125 C-336.29358233 379.29104983 -343.59735974 374.52455706 -355.3125 371.125 C-360.20951166 370.08003098 -364.95398496 369.94175941 -369.9375 369.9375 C-370.66839844 369.92525391 -371.39929687 369.91300781 -372.15234375 369.90039062 C-378.69560584 369.88343917 -384.89046139 370.94601836 -391.3125 372.125 C-392.80007343 372.38804471 -394.2878838 372.64975158 -395.77587891 372.91040039 C-401.12303745 373.84788078 -406.46781551 374.79853068 -411.8125 375.75 C-412.79435272 375.92451691 -413.77620544 376.09903381 -414.78781128 376.27883911 C-425.60346289 378.20162887 -436.41672351 380.13653939 -447.22265625 382.11328125 C-448.10189758 382.27411697 -448.98113892 382.4349527 -449.88702393 382.60066223 C-451.6602635 382.92514071 -453.43349756 383.24964935 -455.20672607 383.57418823 C-456.08725647 383.73533112 -456.96778687 383.896474 -457.875 384.0625 C-458.7629425 384.22501251 -459.65088501 384.38752502 -460.56573486 384.55496216 C-477.03170563 387.56454629 -493.52177076 390.42552792 -510.01870728 393.25982666 C-524.38403209 395.72932854 -538.73288222 398.26850056 -553.0625 400.9375 C-565.90261941 403.32873805 -578.74818585 405.65912752 -591.64990234 407.69946289 C-593.57405579 408.00698164 -595.49603465 408.32821348 -597.41650391 408.65795898 C-636.10406019 415.082867 -677.33106077 405.73657522 -712.3125 389.125 C-713.07143555 388.76680176 -713.83037109 388.40860352 -714.61230469 388.03955078 C-734.51820902 378.4887381 -750.92502235 363.97345515 -766.98974609 349.05395508 C-770.12832785 346.15611978 -773.35475325 343.42106273 -776.6875 340.75 C-781.72666406 336.69833783 -786.41715771 332.35145384 -791.12060547 327.92236328 C-794.58311478 324.67951548 -798.10536848 321.59070521 -801.8125 318.625 C-806.8168432 314.62152544 -811.45949302 310.31163292 -816.12109375 305.921875 C-819.58346211 302.67921929 -823.10555103 299.59055917 -826.8125 296.625 C-831.8168432 292.62152544 -836.45949302 288.31163292 -841.12109375 283.921875 C-844.58346211 280.67921929 -848.10555103 277.59055917 -851.8125 274.625 C-856.8168432 270.62152544 -861.45949302 266.31163292 -866.12109375 261.921875 C-869.58346211 258.67921929 -873.10555103 255.59055917 -876.8125 252.625 C-881.16954564 249.13936349 -885.25362834 245.44698534 -889.3125 241.625 C-894.33800145 236.8947143 -899.46277068 232.42818771 -904.85546875 228.1171875 C-907.13787761 226.26658572 -909.32171003 224.3460352 -911.5 222.375 C-915.15751661 219.12639829 -919.08247243 216.56626591 -923.3125 214.125 C-918.58514709 210.4183566 -913.3433709 207.76859975 -908.0625 204.9375 C-906.3455896 204.01698853 -906.3455896 204.01698853 -904.59399414 203.07788086 C-837.53714252 167.28726124 -766.81420806 139.50273636 -694.9375 115.0625 C-693.89240265 114.70692017 -692.8473053 114.35134033 -691.77053833 113.98498535 C-678.66795453 109.53457795 -665.53107427 105.21851183 -652.3125 101.125 C-651.33974121 100.82343994 -650.36698242 100.52187988 -649.36474609 100.21118164 C-647.14143284 99.52811008 -644.91578371 98.8541576 -642.6875 98.1875 C-641.88884521 97.94789551 -641.09019043 97.70829102 -640.26733398 97.46142578 C-632.31571626 95.09421394 -624.32594773 92.864069 -616.32763672 90.66040039 C-611.16623556 89.23240992 -606.03659743 87.74094256 -600.92578125 86.140625 C-594.14938435 84.03862884 -587.31332575 82.24487035 -580.4375 80.5 C-579.10768162 80.16057662 -577.77793106 79.82088743 -576.44824219 79.48095703 C-574.32576622 78.93846967 -572.20320837 78.39631868 -570.08032227 77.85543823 C-564.57266339 76.45132651 -559.07089558 75.02529878 -553.5703125 73.59375 C-535.98469097 69.02529509 -518.40142303 64.63455389 -500.62915039 60.84130859 C-496.6468063 59.9812278 -492.67131025 59.09198988 -488.6953125 58.203125 C-479.47840054 56.14710436 -470.24278463 54.18593574 -461 52.25 C-459.76802887 51.99188034 -459.76802887 51.99188034 -458.51116943 51.72854614 C-455.14191383 51.0227749 -451.772646 50.31706467 -448.40313721 49.61250305 C-443.53554577 48.59395618 -438.67105372 47.56229192 -433.80859375 46.51953125 C-413.40469688 42.17280764 -392.87954233 38.60108923 -372.3125 35.125 C-370.94026583 34.89193355 -369.56803269 34.658861 -368.19580078 34.42578125 C-347.46906926 30.92580868 -326.66824909 28.00939016 -305.84399414 25.16101074 C-300.78275582 24.46793815 -295.72425921 23.75954201 -290.66796875 23.03125 C-229.5249888 14.26555783 -167.59545402 7.66649676 -105.8828125 4.82543945 C-95.80548879 4.3611076 -85.75089678 3.77420641 -75.6875 3.0625 C-62.14392681 2.11770437 -48.60839219 1.72804231 -35.03662109 1.46655273 C-28.49287425 1.33456005 -22.02489704 1.19339612 -15.52734375 0.34106445 C-10.37286375 -0.16177007 -5.17361025 -0.01727416 0 0 Z " fill="#FEAB33" transform="translate(1405.3125,173.875)"/>
<path d="M0 0 C0 0.33 0 0.66 0 1 C-0.86274536 1.13462646 -0.86274536 1.13462646 -1.74291992 1.27197266 C-63.24200292 10.96551739 -122.0389502 29.62852219 -179.12280273 54.19458008 C-181.80121928 55.34376673 -184.48671911 56.47604164 -187.171875 57.609375 C-203.0255497 64.3478833 -218.56518637 71.77149265 -234.12255859 79.16113281 C-237.46908968 80.74998605 -240.82120449 82.32663011 -244.17578125 83.8984375 C-254.77084808 88.87525538 -265.16029938 94.15522153 -275.48535156 99.66845703 C-278.14527435 101.07692489 -280.81677031 102.46104672 -283.4921875 103.83984375 C-296.11503914 110.34936187 -308.53833877 117.14453386 -320.86181641 124.20361328 C-324.26278903 126.15042802 -327.668227 128.08933158 -331.07421875 130.02734375 C-358.8137242 145.81974239 -386.13971334 162.21185027 -413.15771484 179.21337891 C-415.74380537 180.8389596 -418.33436673 182.45714666 -420.92578125 184.07421875 C-438.3861901 195.02683127 -455.45715153 206.5808075 -472.58508301 218.04264832 C-477.49819193 221.32989254 -482.41593193 224.6098481 -487.34375 227.875 C-498.86015249 235.50948925 -510.25233897 243.29315068 -521.53808594 251.26464844 C-524.95027036 253.66982563 -528.37353303 256.05901698 -531.79638672 258.44897461 C-539.95337865 264.1462033 -548.08851736 269.87170875 -556.16601562 275.68115234 C-557.47137386 276.61985644 -558.77743916 277.55757762 -560.08398438 278.49462891 C-568.75632847 284.71567716 -577.37987665 290.99176542 -585.90112305 297.41845703 C-590.96695651 301.23663707 -596.072021 304.99868384 -601.1875 308.75 C-608.98063075 314.47213414 -616.68741764 320.30113964 -624.3671875 326.17431641 C-629.61781139 330.18921297 -634.88899349 334.17357141 -640.1875 338.125 C-648.10575776 344.03991552 -655.90001303 350.10965968 -663.68701172 356.19580078 C-666.03870769 358.03019315 -668.39548414 359.8578589 -670.75390625 361.68359375 C-671.53241943 362.28695557 -672.31093262 362.89031738 -673.11303711 363.51196289 C-674.64525804 364.6988266 -676.17859907 365.88424589 -677.71313477 367.06811523 C-681.00354991 369.61759386 -684.25614484 372.18319314 -687.3984375 374.9140625 C-688.36007812 375.74679687 -689.32171875 376.57953125 -690.3125 377.4375 C-691.11300781 378.15808594 -691.91351562 378.87867188 -692.73828125 379.62109375 C-695 381 -695 381 -697.484375 380.90234375 C-710.89131675 376.09333203 -723.08350609 363.98045436 -733.31811523 354.33886719 C-736.58791812 351.26667607 -739.93057105 348.36701774 -743.4375 345.5625 C-748.45922225 341.53488871 -753.12582761 337.20654144 -757.80834961 332.79711914 C-761.27078844 329.55436739 -764.79295976 326.46563219 -768.5 323.5 C-773.5043432 319.49652544 -778.14699302 315.18663292 -782.80859375 310.796875 C-786.27096211 307.55421929 -789.79305103 304.46555917 -793.5 301.5 C-798.5043432 297.49652544 -803.14699302 293.18663292 -807.80859375 288.796875 C-811.27096211 285.55421929 -814.79305103 282.46555917 -818.5 279.5 C-823.5043432 275.49652544 -828.14699302 271.18663292 -832.80859375 266.796875 C-836.27096211 263.55421929 -839.79305103 260.46555917 -843.5 257.5 C-847.85703648 254.01437081 -851.94119794 250.32204774 -856 246.5 C-860.93539513 241.85311512 -865.99133568 237.47653302 -871.29296875 233.24609375 C-874.28999853 230.75938073 -877.10999493 228.11178375 -879.9375 225.4375 C-885.51030169 220.19342585 -891.48360972 216.03230534 -898 212 C-893.27264709 208.2933566 -888.0308709 205.64359975 -882.75 202.8125 C-881.0330896 201.89198853 -881.0330896 201.89198853 -879.28149414 200.95288086 C-812.22464252 165.16226124 -741.50170806 137.37773636 -669.625 112.9375 C-668.57990265 112.58192017 -667.5348053 112.22634033 -666.45803833 111.85998535 C-653.35545453 107.40957795 -640.21857427 103.09351183 -627 99 C-626.02724121 98.69843994 -625.05448242 98.39687988 -624.05224609 98.08618164 C-621.82893284 97.40311008 -619.60328371 96.7291576 -617.375 96.0625 C-616.57634521 95.82289551 -615.77769043 95.58329102 -614.95483398 95.33642578 C-607.00321626 92.96921394 -599.01344773 90.739069 -591.01513672 88.53540039 C-585.85373556 87.10740992 -580.72409743 85.61594256 -575.61328125 84.015625 C-568.83688435 81.91362884 -562.00082575 80.11987035 -555.125 78.375 C-553.79518162 78.03557662 -552.46543106 77.69588743 -551.13574219 77.35595703 C-549.01326622 76.81346967 -546.89070837 76.27131868 -544.76782227 75.73043823 C-539.26016339 74.32632651 -533.75839558 72.90029878 -528.2578125 71.46875 C-510.67219097 66.90029509 -493.08892303 62.50955389 -475.31665039 58.71630859 C-471.3343063 57.8562278 -467.35881025 56.96698988 -463.3828125 56.078125 C-454.16590054 54.02210436 -444.93028463 52.06093574 -435.6875 50.125 C-434.45552887 49.86688034 -434.45552887 49.86688034 -433.19866943 49.60354614 C-429.82941383 48.8977749 -426.460146 48.19206467 -423.09063721 47.48750305 C-418.22304577 46.46895618 -413.35855372 45.43729192 -408.49609375 44.39453125 C-388.09219688 40.04780764 -367.56704233 36.47608923 -347 33 C-345.62776583 32.76693355 -344.25553269 32.533861 -342.88330078 32.30078125 C-322.15656926 28.80080868 -301.35574909 25.88439016 -280.53149414 23.03601074 C-275.47025582 22.34293815 -270.41175921 21.63454201 -265.35546875 20.90625 C-204.21828103 12.14138823 -142.28570216 5.51864675 -80.5769043 2.70263672 C-71.68892312 2.29602766 -62.82260275 1.80113636 -53.94873047 1.15014648 C-35.94895395 -0.16659687 -18.0374173 -0.21039607 0 0 Z " fill="#F38F0C" transform="translate(1380,176)"/>
<path d="M0 0 C-1.61275257 4.6932912 -4.15298638 8.52204156 -6.875 12.625 C-7.88103116 14.16222224 -8.88621072 15.70000207 -9.890625 17.23828125 C-10.40818359 18.02928223 -10.92574219 18.8202832 -11.45898438 19.63525391 C-41.1330568 65.17122753 -67.85050721 112.72471207 -92.85546875 160.95703125 C-94.63725661 164.3936165 -96.4326399 167.82251902 -98.2434082 171.24389648 C-104.23766474 182.57431292 -110.08501468 193.96998956 -115.8125 205.4375 C-116.46138687 206.73518311 -116.46138687 206.73518311 -117.12338257 208.05908203 C-124.14471103 222.11558932 -130.88588519 236.26888794 -137.41503906 250.56103516 C-139.08355035 254.18128315 -140.78236677 257.78586596 -142.4921875 261.38671875 C-152.39440396 282.26159419 -161.74957194 303.35735015 -170.93945312 324.5546875 C-171.94775768 326.87954442 -172.95796689 329.20356358 -173.96875 331.52734375 C-212.0346302 419.10509682 -245.24544003 508.75258636 -290.75 643.5 C-291.15434265 644.73158844 -291.5586853 645.96317688 -291.97528076 647.23208618 C-299.0427376 668.78907988 -305.964372 690.4020464 -312.29963684 712.18719482 C-314.36946683 719.30426138 -316.55524985 726.3850665 -318.73577881 733.46884155 C-322.75990275 746.550482 -326.68187076 759.65076194 -330.38232422 772.828125 C-331.17405406 775.61200984 -332.0012062 778.38460978 -332.83056641 781.1574707 C-335.53437114 790.20096883 -337.98178025 799.30677735 -340.41381836 808.42675781 C-342.02757329 814.45740514 -343.69319559 820.46201598 -345.5 826.4375 C-348.74307798 837.19893067 -351.43389474 848.11219476 -354.22607422 858.99707031 C-355.4711531 863.82813348 -356.76179306 868.64636742 -358.0546875 873.46484375 C-359.3392688 878.26875318 -360.59959914 883.07893805 -361.859375 887.8894043 C-363.21729743 893.06188216 -364.59833117 898.22770758 -365.9921875 903.390625 C-366.52638515 905.37493032 -367.06029331 907.35931332 -367.59411621 909.34371948 C-368.10870004 911.25205166 -368.62704282 913.15936901 -369.14550781 915.06665039 C-371.13504191 922.46541482 -372.84989163 929.83123485 -374.28466797 937.35620117 C-374.52072754 938.22865479 -374.75678711 939.1011084 -375 940 C-375.66 940.33 -376.32 940.66 -377 941 C-377.45213867 940.11554199 -377.90427734 939.23108398 -378.37011719 938.31982422 C-386.01033161 923.38453016 -393.64770043 908.45805991 -401.75097656 893.76708984 C-405.26150648 887.39207338 -408.65223465 880.96185246 -412 874.5 C-415.91243102 866.95000708 -419.90568598 859.45293099 -424 852 C-428.61861695 843.59267383 -433.08893752 835.11774026 -437.50219727 826.60107422 C-440.89940696 820.06292296 -444.38782443 813.58149652 -447.9375 807.125 C-452.80692616 798.26570371 -457.49565777 789.32251507 -462.13110352 780.33886719 C-465.77743958 773.29245819 -469.54179232 766.32121495 -473.375 759.375 C-476.80594267 753.12061339 -480.20106299 746.8581553 -483.3125 740.4375 C-483.86550781 739.30183594 -484.41851563 738.16617188 -484.98828125 736.99609375 C-486.80556326 731.61441304 -484.35868506 726.98920678 -482.3671875 721.90234375 C-482.09905243 721.20906479 -481.83091736 720.51578583 -481.55465698 719.80149841 C-480.6665257 717.51148184 -479.77138289 715.22429835 -478.875 712.9375 C-478.56421509 712.14168518 -478.25343018 711.34587036 -477.93322754 710.52593994 C-470.91192088 692.56180939 -463.53162237 674.75531534 -456 657 C-455.64810608 656.16988403 -455.29621216 655.33976807 -454.93365479 654.48449707 C-426.71907713 587.95672888 -397.89129899 520.82793809 -363.7109375 457.10546875 C-360.30566462 450.74018701 -357.03981804 444.30288183 -353.7482605 437.87835693 C-347.20633932 425.11870465 -340.54967585 412.43909573 -333.60009766 399.89550781 C-332.12374706 397.22393045 -330.6560335 394.54776597 -329.19165039 391.86961365 C-320.90840283 376.72148458 -312.45140824 361.69626589 -303.67041016 346.82910156 C-302.01895128 344.03209697 -300.37405087 341.23132643 -298.73046875 338.4296875 C-270.54384188 290.45543619 -240.30962688 243.59321288 -207 199 C-205.98418586 197.63295303 -204.9685555 196.26576947 -203.953125 194.8984375 C-192.05961598 178.92032857 -179.77353928 163.28385736 -167 148 C-166.49307617 147.3925293 -165.98615234 146.78505859 -165.46386719 146.15917969 C-160.10877582 139.75225883 -154.66161942 133.44391074 -149.046875 127.26171875 C-147.1749031 125.19326125 -145.3313661 123.10439086 -143.5 121 C-128.88803042 104.26747247 -113.87377164 87.4014607 -97.07470703 72.82958984 C-93.69548165 69.84960456 -90.45120685 66.73018854 -87.1875 63.625 C-81.00167525 57.78869717 -74.66101862 52.29095795 -68 47 C-66.77569214 45.99810863 -65.55315969 44.99404533 -64.33203125 43.98828125 C-10.86255004 0 -10.86255004 0 0 0 Z " fill="#F48F0C" transform="translate(1474,219)"/>
<path d="M0 0 C0.33 0 0.66 0 1 0 C1 51.15 1 102.3 1 155 C-50.48 155 -101.96 155 -155 155 C-155 154.67 -155 154.34 -155 154 C-153.87207031 153.85304688 -152.74414062 153.70609375 -151.58203125 153.5546875 C-115.31870316 148.51291511 -82.09573958 134.02355023 -55.26171875 108.91796875 C-53 107 -53 107 -50.83203125 105.98828125 C-48.46679851 104.71236679 -48.11247438 103.40131665 -47 101 C-45.91279512 99.8988566 -44.7819655 98.84010016 -43.625 97.8125 C-33.32239306 87.75340923 -25.73638173 74.62339359 -19 62 C-18.40703125 60.93007812 -17.8140625 59.86015625 -17.203125 58.7578125 C-7.48197967 40.47689761 -2.77325645 20.39159153 0 0 Z " fill="#000000" transform="translate(1562,1408)"/>
<path d="M0 0 C0.33 0 0.66 0 1 0 C1.14695313 1.12792969 1.29390625 2.25585938 1.4453125 3.41796875 C6.45147917 39.48565328 21.40477674 76.44328116 48.63671875 101.546875 C50 103 50 103 50 105 C50.59941406 105.268125 51.19882812 105.53625 51.81640625 105.8125 C54.03135212 107.01705017 55.25678375 108.14541655 56.9375 110 C82.02078856 135.55755242 120.70518427 150.90396353 156 154 C156 154.33 156 154.66 156 155 C104.52 155 53.04 155 0 155 C0 103.85 0 52.7 0 0 Z " fill="#000000" transform="translate(0,1408)"/>
<path d="M0 0 C51.48 0 102.96 0 156 0 C156 51.15 156 102.3 156 155 C155.67 155 155.34 155 155 155 C154.85304688 153.87207031 154.70609375 152.74414062 154.5546875 151.58203125 C150.37759601 121.48754416 139.64335946 93.14828843 121 69 C120.38640625 68.19304687 119.7728125 67.38609375 119.140625 66.5546875 C90.68491511 29.98557273 49.41778112 7.44139158 3.63671875 1.4453125 C1.83654297 1.22488281 1.83654297 1.22488281 0 1 C0 0.67 0 0.34 0 0 Z " fill="#000000" transform="translate(1407,0)"/>
<path d="M0 0 C51.48 0 102.96 0 156 0 C156 0.33 156 0.66 156 1 C154.79988281 1.14695313 153.59976563 1.29390625 152.36328125 1.4453125 C123.67844906 5.19580117 96.52133676 14.92269302 73 32 C72.11997314 32.63204346 72.11997314 32.63204346 71.22216797 33.27685547 C60.16246314 41.28927529 49.56573815 50.31646346 41 61 C40.22011719 61.96550781 39.44023438 62.93101563 38.63671875 63.92578125 C17.41758892 90.60834885 5.57567071 121.44508146 1 155 C0.67 155 0.34 155 0 155 C0 103.85 0 52.7 0 0 Z " fill="#000000" transform="translate(0,0)"/>
</svg>
